# xmcd
#
# Track frame offsets: 
#        150
#        14713
#        36525
#        60190
#        78900
#        101696
#        120729
#        139905
#        157100
#        172041
#        191309
#        210493
#        227513
#        243393
#
# Disc length: 3500 seconds
#
# Revision: 0
# Processed by: cddbd v1.5.2PL0 Copyright (c) Steve Scherf et al.
# Submitted via: ExactAudioCopy v1.0b1
#
DISCID=bb0daa0e
DTITLE=Jimmy Sommers - Time Stands Still
DYEAR=2009
DGENRE=JPop
TTITLE0=Fly Me To The Moon
TTITLE1=Over The Rainbow (feat. Eric Benèt)
TTITLE2=Besame Mucho
TTITLE3=What A Wonderful World
TTITLE4=Europa
TTITLE5=Don't Know Why
TTITLE6=Georgia On My Mind
TTITLE7=Making Whoopie
TTITLE8=Fever (feat. Gloria Loring)
TTITLE9=The Look Of Love
TTITLE10=At Last (feat. Dena Deadly)
TTITLE11=When I Fall In Love
TTITLE12=The Way You Look Tonight
TTITLE13=You Are So Beautiful
EXTD=
EXTT0=
EXTT1=
EXTT2=
EXTT3=
EXTT4=
EXTT5=
EXTT6=
EXTT7=
EXTT8=
EXTT9=
EXTT10=
EXTT11=
EXTT12=
EXTT13=
PLAYORDER=
